<svg xmlns="http://www.w3.org/2000/svg" viewBox="-12 -12 158.4 88" width="317" height="176" role="img"><title>Halfmile Split mark</title><defs><clipPath id="hmL"><rect x="0" y="0" width="67.2" height="64"/></clipPath><clipPath id="hmR"><rect x="67.2" y="0" width="67.2" height="64"/></clipPath></defs><path d="M32.0,0H102.4A32.0,32.0 0 0 1 102.4,64H32.0A32.0,32.0 0 0 1 32.0,0zM32.0,15.36A16.64,16.64 0 0 0 32.0,48.64H102.4A16.64,16.64 0 0 0 102.4,15.36z" fill="#1C1E20" fill-rule="evenodd" clip-path="url(#hmL)"/><g clip-path="url(#hmR)" fill="none" stroke="#1C1E20" stroke-width="3.52"><rect x="1.76" y="1.76" width="130.88" height="60.48" rx="30.24"/><rect x="13.6" y="13.6" width="107.2" height="36.800000000000004" rx="18.400000000000002"/></g><rect x="63.68" y="0" width="7.04" height="15.36" fill="#2F4FD8"/><rect x="63.68" y="48.64" width="7.04" height="15.36" fill="#2F4FD8"/></svg>
