<svg xmlns="http://www.w3.org/2000/svg" viewBox="0 -10 440 494" role="img" aria-label="Middle Hoodie, back"><style>@import url('https://fonts.googleapis.com/css2?family=Archivo:wdth,wght@62..125,400..900&family=IBM+Plex+Mono:wght@500;600&display=swap');.d{font-family:Archivo,'Arial Narrow',sans-serif;font-weight:900;font-stretch:62%;font-variation-settings:'wdth' 62}.m{font-family:'IBM Plex Mono',ui-monospace,monospace;font-weight:600}</style><path d="M150,60 L84,84 C60,92 48,110 44,140 L18,400 L70,410 L96,200 L98,452 L342,452 L344,200 L370,410 L422,400 L396,140 C392,110 380,92 356,84 L290,60 Z" fill="#1C1E20" stroke="rgba(0,0,0,.38)" stroke-width="2" stroke-linejoin="round"/><g fill="#1C1E20" stroke="rgba(0,0,0,.38)" stroke-width="2"><path d="M18,400 L70,410 L66,442 L14,432 Z"/><path d="M422,400 L370,410 L374,442 L426,432 Z"/><rect x="98" y="448" width="244" height="28"/><path d="M140,330 L300,330 L318,424 L122,424 Z"/><path d="M150,60 C138,-4 302,-4 290,60 C280,102 160,102 150,60 Z"/></g><path d="M172,58 C178,18 262,18 268,58 C258,88 182,88 172,58 Z" fill="rgba(0,0,0,.16)"/><g stroke="rgba(0,0,0,.38)" stroke-width="1.5" fill="none"><path d="M140,330 L122,424" /><path d="M300,330 L318,424"/><path d="M104,462 H336" stroke-dasharray="4 4"/><path d="M96,200 Q100,160 84,86"/><path d="M344,200 Q340,160 356,86"/></g><g stroke="#F2F1EC" stroke-width="4" stroke-linecap="round" opacity=".8"><path d="M200,88 L194,176"/><path d="M240,88 L246,176"/></g><g transform="translate(140,110) scale(0.5333333333333333)"><text class="d" x="0" y="106" font-size="144.9" textLength="300" lengthAdjust="spacing" fill="#F2F1EC">STILL</text><text class="d" x="0" y="220" font-size="138.4" textLength="300" lengthAdjust="spacing" fill="#F2F1EC">HERE.</text><rect x="0" y="240" width="300" height="8" fill="#F2C230"/></g></svg>
