<svg xmlns="http://www.w3.org/2000/svg" viewBox="20 30 260 230" role="img" aria-label="Watch Beanie"><style>@import url('https://fonts.googleapis.com/css2?family=Archivo:wdth,wght@62..125,400..900&family=IBM+Plex+Mono:wght@500;600&display=swap');.d{font-family:Archivo,'Arial Narrow',sans-serif;font-weight:900;font-stretch:62%;font-variation-settings:'wdth' 62}.m{font-family:'IBM Plex Mono',ui-monospace,monospace;font-weight:600}</style><path d="M52,170 C52,40 248,40 248,170 Z" fill="#121212" stroke="rgba(0,0,0,.42)" stroke-width="2"/><rect x="40" y="148" width="220" height="96" rx="12" fill="#121212" stroke="rgba(0,0,0,.42)" stroke-width="2"/><g stroke="rgba(255,255,255,.16)" stroke-width="2"><path d="M52,156 V238"/><path d="M61,156 V238"/><path d="M70,156 V238"/><path d="M79,156 V238"/><path d="M88,156 V238"/><path d="M97,156 V238"/><path d="M106,156 V238"/><path d="M115,156 V238"/><path d="M124,156 V238"/><path d="M133,156 V238"/><path d="M142,156 V238"/><path d="M151,156 V238"/><path d="M160,156 V238"/><path d="M169,156 V238"/><path d="M178,156 V238"/><path d="M187,156 V238"/><path d="M196,156 V238"/><path d="M205,156 V238"/><path d="M214,156 V238"/><path d="M223,156 V238"/><path d="M232,156 V238"/><path d="M241,156 V238"/></g><g transform="translate(110,180) scale(0.11235955056179775)"><rect x="0" y="0" width="712" height="192" rx="10" fill="#121212"/><rect x="16" y="16" width="680" height="160" rx="4" fill="none" stroke="#EEEBE3" stroke-width="5" stroke-dasharray="16 10"/><g transform="translate(70,46)"><g fill="#EEEBE3"><path transform="translate(0,0)" d="M0,0h24v100h-24zM38,0h24v100h-24zM0,38h62v24h-62z" fill-rule="nonzero"/><path transform="translate(72,0)" d="M0,100V22L22,0H40L62,22V100H38V70H24V100zM24,24V50H38V24z" fill-rule="evenodd"/><path transform="translate(144,0)" d="M0,0h24v100h-24zM0,76h58v24h-58z" fill-rule="nonzero"/><path transform="translate(212,0)" d="M0,0h24v100h-24zM0,0h60v24h-60zM0,42h50v21h-50z" fill-rule="nonzero"/><path transform="translate(306,0)" d="M0,100V22L22,0H72L94,22V100H70V24H57.0V72H37.0V24H24V100z" fill-rule="evenodd"/><path transform="translate(410,0)" d="M0,0h24v100h-24z" fill-rule="nonzero"/><path transform="translate(444,0)" d="M0,0h24v100h-24zM0,76h58v24h-58z" fill-rule="nonzero"/><path transform="translate(512,0)" d="M0,0h24v100h-24zM0,0h60v24h-60zM0,40h52v21h-52zM0,76h60v24h-60z" fill-rule="nonzero"/></g><rect x="286" y="-14" width="6" height="128" fill="#B58B4C"/></g></g></svg>
